<svg width="24" height="24" viewBox="0 0 24 24" fill="none" xmlns="http://www.w3.org/2000/svg">
<path fill-rule="evenodd" clip-rule="evenodd" d="M15.25 4.85129C15.25 4.57296 15.25 4.4338 15.1631 4.3461C15.0762 4.25841 14.938 4.25713 14.6615 4.25459C14.1621 4.24999 13.6277 4.25 13.0564 4.25H13.0564H10.9436H10.9436C10.3723 4.25 9.8379 4.24999 9.33848 4.25459C9.06202 4.25713 8.92379 4.25841 8.83689 4.3461C8.75 4.4338 8.75 4.57296 8.75 4.85129V7C8.75 7.41421 8.41421 7.75 8 7.75C7.58579 7.75 7.25 7.41421 7.25 7V4.97457C7.25 4.668 7.25 4.51471 7.14852 4.42514C7.04703 4.33557 6.89993 4.354 6.60572 4.39084C6.5739 4.39482 6.54232 4.39892 6.51098 4.40314C5.33856 4.56076 4.38961 4.89288 3.64124 5.64124C2.89288 6.38961 2.56076 7.33856 2.40314 8.51098C2.39892 8.54232 2.39483 8.5739 2.39084 8.60572C2.354 8.89993 2.33557 9.04703 2.42514 9.14852C2.51471 9.25 2.668 9.25 2.97458 9.25H21.0254C21.332 9.25 21.4853 9.25 21.5749 9.14852C21.6644 9.04703 21.646 8.89993 21.6092 8.60572C21.6052 8.5739 21.6011 8.54232 21.5969 8.51098C21.4392 7.33856 21.1071 6.38961 20.3588 5.64124C19.6104 4.89288 18.6614 4.56076 17.489 4.40314C17.4577 4.39892 17.4261 4.39482 17.3943 4.39084C17.1001 4.354 16.953 4.33557 16.8515 4.42514C16.75 4.51471 16.75 4.668 16.75 4.97457V7C16.75 7.41421 16.4142 7.75 16 7.75C15.5858 7.75 15.25 7.41421 15.25 7V4.85129ZM2.25 12.9435C2.25 12.3723 2.24999 11.8379 2.25459 11.3385C2.25713 11.062 2.25841 10.9238 2.3461 10.8369C2.4338 10.75 2.57297 10.75 2.85129 10.75H21.1487C21.427 10.75 21.5662 10.75 21.6539 10.8369C21.7416 10.9238 21.7429 11.062 21.7454 11.3385C21.75 11.8377 21.75 12.3719 21.75 12.9429V12.943V12.9431V12.9436V13.0565C21.75 14.8942 21.75 16.3498 21.5969 17.489C21.4392 18.6614 21.1071 19.6104 20.3588 20.3588C19.6104 21.1071 18.6614 21.4392 17.489 21.5969C16.3498 21.75 14.8942 21.75 13.0564 21.75H10.9435C9.1058 21.75 7.65018 21.75 6.51098 21.5969C5.33856 21.4392 4.38961 21.1071 3.64124 20.3588C2.89288 19.6104 2.56076 18.6614 2.40314 17.489C2.24997 16.3498 2.24999 14.8942 2.25 13.0564V13.0564V12.9436V12.9435ZM7 14.5C7.55229 14.5 8 14.0523 8 13.5C8 12.9477 7.55229 12.5 7 12.5C6.44772 12.5 6 12.9477 6 13.5C6 14.0523 6.44772 14.5 7 14.5ZM7 18.5C7.55229 18.5 8 18.0523 8 17.5C8 16.9477 7.55229 16.5 7 16.5C6.44772 16.5 6 16.9477 6 17.5C6 18.0523 6.44772 18.5 7 18.5ZM13 13.5C13 14.0523 12.5523 14.5 12 14.5C11.4477 14.5 11 14.0523 11 13.5C11 12.9477 11.4477 12.5 12 12.5C12.5523 12.5 13 12.9477 13 13.5ZM12 18.5C12.5523 18.5 13 18.0523 13 17.5C13 16.9477 12.5523 16.5 12 16.5C11.4477 16.5 11 16.9477 11 17.5C11 18.0523 11.4477 18.5 12 18.5ZM18 13.5C18 14.0523 17.5523 14.5 17 14.5C16.4477 14.5 16 14.0523 16 13.5C16 12.9477 16.4477 12.5 17 12.5C17.5523 12.5 18 12.9477 18 13.5ZM17 18.5C17.5523 18.5 18 18.0523 18 17.5C18 16.9477 17.5523 16.5 17 16.5C16.4477 16.5 16 16.9477 16 17.5C16 18.0523 16.4477 18.5 17 18.5Z" fill="#1A1818"/>
<path d="M8.75 3C8.75 2.58579 8.41421 2.25 8 2.25C7.58579 2.25 7.25 2.58579 7.25 3V4.32709C7.70647 4.29229 8.20545 4.27319 8.75 4.26272V3Z" fill="#1A1818"/>
<path d="M16.75 4.32709V3C16.75 2.58579 16.4142 2.25 16 2.25C15.5858 2.25 15.25 2.58579 15.25 3V4.26272C15.7945 4.27319 16.2935 4.29229 16.75 4.32709Z" fill="#1A1818"/>
</svg>
