<svg width="24" height="24" viewBox="0 0 24 24" fill="none" xmlns="http://www.w3.org/2000/svg">
<path fill-rule="evenodd" clip-rule="evenodd" d="M12 22C17.5228 22 22 17.5228 22 12C22 6.47715 17.5228 2 12 2C6.47715 2 2 6.47715 2 12C2 17.5228 6.47715 22 12 22ZM12.75 8C12.75 7.58579 12.4142 7.25 12 7.25C11.5858 7.25 11.25 7.58579 11.25 8V11.4458C11.25 12.0491 11.5608 12.61 12.0725 12.9297L15.6025 15.136C15.9538 15.3555 16.4165 15.2488 16.636 14.8975C16.8555 14.5462 16.7488 14.0835 16.3975 13.864L12.8675 11.6578C12.7944 11.6121 12.75 11.5319 12.75 11.4458V8Z" fill="#1A1818"/>
</svg>
