<svg width="24" height="24" viewBox="0 0 24 24" fill="none" xmlns="http://www.w3.org/2000/svg">
<path fill-rule="evenodd" clip-rule="evenodd" d="M9.36383 4.3707C10.0555 1.63359 13.9444 1.6336 14.636 4.3707C14.8221 5.10722 15.6293 5.49593 16.3211 5.18222C18.8923 4.01641 21.317 7.05686 19.6083 9.30416C19.1485 9.90888 19.3478 10.7823 20.0245 11.1276C22.5391 12.411 21.6737 16.2024 18.8513 16.2676C18.0918 16.2852 17.5333 16.9856 17.6852 17.7299C18.2496 20.4961 14.7458 22.1834 12.9351 20.0174C12.4479 19.4346 11.552 19.4346 11.0647 20.0174C9.254 22.1834 5.75023 20.4961 6.31467 17.7299C6.46656 16.9856 5.90798 16.2852 5.14851 16.2676C2.32613 16.2024 1.46078 12.411 3.97535 11.1276C4.65199 10.7823 4.85134 9.90888 4.39155 9.30416C2.68282 7.05686 5.1075 4.01641 7.67868 5.18222C8.37056 5.49593 9.17772 5.10722 9.36383 4.3707ZM12 15C13.6569 15 15 13.6568 15 12C15 10.3431 13.6569 8.99995 12 8.99995C10.3431 8.99995 9 10.3431 9 12C9 13.6568 10.3431 15 12 15Z" fill="#1A1818"/>
</svg>
